<svg xmlns="http://www.w3.org/2000/svg" width="288" height="221" viewBox="0 0 288 221">
<g>
<path d="M 170.00 207.41 C153.14,211.70 135.14,211.40 119.57,206.57 C115.21,205.21 111.27,204.33 110.82,204.61 C110.37,204.89 110.00,204.73 110.00,204.26 C110.00,203.79 107.86,202.37 105.25,201.11 C81.26,189.53 61.57,166.30 53.87,140.50 C51.44,132.38 50.06,105.35 51.85,101.00 C52.87,98.51 52.87,98.51 52.94,100.81 C52.97,102.08 53.41,102.86 53.91,102.55 C54.42,102.24 55.06,102.55 55.34,103.24 C55.64,104.00 55.87,103.81 55.92,102.75 C56.04,100.15 60.62,100.53 63.47,103.38 C68.53,108.44 71.67,110.00 76.78,110.00 C79.82,110.00 82.21,110.54 82.91,111.40 C83.55,112.17 86.32,113.53 89.07,114.43 C93.67,115.93 94.34,115.93 97.46,114.45 C101.52,112.52 104.95,113.80 105.08,117.29 C105.14,118.89 105.80,118.17 107.48,114.65 C108.76,111.97 110.24,109.36 110.77,108.83 C111.81,107.79 112.85,117.68 113.14,131.35 C113.31,139.19 113.31,139.21 109.91,141.78 C102.16,147.63 93.73,158.15 100.75,153.20 C103.60,151.19 111.52,147.00 112.46,147.00 C113.49,147.00 113.00,160.28 111.83,164.19 C110.36,169.09 105.65,173.79 101.39,174.59 C99.15,175.01 98.31,175.63 98.68,176.60 C99.12,177.76 104.67,178.00 131.11,178.00 C162.92,178.00 163.00,177.99 163.00,175.88 C163.00,174.24 162.54,173.89 160.96,174.30 C159.51,174.68 157.75,173.73 154.96,171.07 L 151.00 167.31 L 151.00 125.03 L 158.22 121.39 C179.10,110.88 189.64,100.37 191.60,88.12 C192.17,84.52 192.46,84.18 194.14,85.08 C195.19,85.64 196.44,85.84 196.93,85.54 C198.44,84.61 216.11,81.26 223.50,80.50 C227.35,80.11 231.34,79.63 232.36,79.43 C236.45,78.64 239.42,85.92 241.53,101.90 C247.84,149.89 216.95,195.47 170.00,207.41 ZM 136.44 170.78 C134.41,173.68 131.50,173.60 128.45,170.55 C126.07,168.16 126.00,167.65 126.00,153.57 L 126.00 139.04 L 131.25 136.03 C134.14,134.37 136.84,133.01 137.25,133.01 C137.66,133.00 138.00,141.00 138.00,150.78 C138.00,165.25 137.71,168.97 136.44,170.78 ZM 169.48 104.25 C167.00,106.74 161.79,110.44 157.91,112.48 L 150.86 116.18 L 151.08 108.84 C151.31,101.05 151.29,101.03 146.25,102.55 C144.65,103.04 144.00,102.82 144.00,101.80 C144.00,100.94 146.22,99.67 149.59,98.60 C155.09,96.87 157.86,97.14 154.97,99.12 C152.30,100.96 158.25,98.92 161.75,96.80 C163.54,95.72 165.57,95.03 166.25,95.26 C166.94,95.50 168.74,95.34 170.25,94.92 C172.13,94.39 173.02,94.51 173.07,95.32 C173.11,95.97 173.57,95.60 174.09,94.50 C174.92,92.76 174.98,92.82 174.53,95.00 C174.26,96.38 174.02,98.00 174.01,98.62 C174.01,99.23 171.97,101.77 169.48,104.25 ZM 137.50 122.17 C137.81,123.01 135.78,124.71 132.00,126.79 L 126.00 130.08 L 126.10 114.79 C126.20,100.02 126.26,99.66 127.62,104.11 C129.34,109.71 132.62,113.21 134.05,110.96 C134.55,110.16 134.98,109.95 135.00,110.50 C135.02,111.05 135.47,110.82 136.00,110.00 C136.68,108.94 136.97,110.32 136.98,114.67 C136.99,118.06 137.22,121.44 137.50,122.17 Z" fill="rgb(20,40,72)"/>
<path d="M 216.03 180.28 C235.28,159.86 245.40,131.33 241.53,101.90 C239.42,85.92 236.45,78.64 232.36,79.43 C231.34,79.63 227.35,80.11 223.50,80.50 C216.11,81.26 198.44,84.61 196.93,85.54 C196.44,85.84 195.19,85.64 194.14,85.08 C192.46,84.18 192.17,84.52 191.60,88.12 C191.31,89.91 190.84,91.66 190.19,93.38 C192.40,86.49 192.14,74.90 189.33,68.82 C186.43,62.53 179.68,55.40 173.54,52.16 L 168.50 49.50 L 133.75 49.20 C103.81,48.94 99.00,49.11 99.00,50.36 C99.00,51.29 100.46,52.07 102.98,52.50 C105.65,52.95 107.80,54.16 109.48,56.16 L 112.00 59.15 L 112.10 86.33 C112.14,97.17 112.33,109.63 112.57,118.34 C112.09,111.96 111.43,108.17 110.77,108.83 C110.24,109.36 108.76,111.97 107.48,114.65 C105.80,118.17 105.14,118.89 105.08,117.29 C104.95,113.80 101.52,112.52 97.46,114.45 C94.34,115.93 93.67,115.93 89.07,114.43 C86.32,113.53 83.55,112.17 82.91,111.40 C82.21,110.54 79.82,110.00 76.78,110.00 C71.67,110.00 68.53,108.44 63.47,103.38 C60.62,100.53 56.04,100.15 55.92,102.75 C55.87,103.81 55.64,104.00 55.34,103.24 C55.06,102.55 54.42,102.24 53.91,102.55 C53.41,102.86 52.97,102.08 52.94,100.81 C52.87,98.51 52.87,98.51 51.85,101.00 C51.77,101.20 51.69,101.44 51.62,101.73 C51.79,96.40 52.16,94.52 52.88,94.07 C53.64,93.61 53.96,92.74 53.59,92.15 C52.62,90.58 57.52,76.63 61.90,68.48 C68.45,56.28 80.90,41.92 89.86,36.22 C91.31,35.30 92.72,34.27 93.00,33.93 C93.28,33.59 96.88,31.50 101.00,29.27 C109.77,24.53 121.35,20.71 132.25,18.97 C142.70,17.29 161.21,18.22 171.50,20.93 C193.97,26.84 213.33,41.17 227.64,62.49 C233.00,70.48 234.33,71.12 231.50,64.35 C229.12,58.64 229.69,59.03 234.65,66.50 C243.71,80.13 248.75,100.55 247.72,119.40 C247.18,129.21 244.70,142.44 243.01,144.49 C242.56,145.05 240.94,148.60 239.43,152.39 C236.24,160.36 226.70,175.13 221.92,179.50 L 218.63 182.50 L 222.32 177.37 C228.42,168.85 226.47,169.01 218.50,177.67 C217.69,178.56 216.86,179.43 216.03,180.28 ZM 137.50 122.17 C137.22,121.44 136.99,118.06 136.98,114.67 C136.97,110.32 136.68,108.94 136.00,110.00 C135.47,110.82 135.02,111.05 135.00,110.50 C134.98,109.95 134.55,110.16 134.05,110.96 C132.62,113.21 129.34,109.71 127.62,104.11 C126.26,99.66 126.20,100.02 126.10,114.79 L 126.00 130.08 L 126.00 57.00 L 141.82 57.00 C160.32,57.00 165.18,58.16 170.10,63.77 C175.18,69.55 176.95,74.53 176.98,83.07 C176.99,87.40 176.32,92.63 175.43,95.26 C175.08,96.28 174.61,97.30 174.03,98.32 C174.08,97.57 174.29,96.19 174.53,95.00 C174.98,92.82 174.92,92.76 174.09,94.50 C173.57,95.60 173.11,95.97 173.07,95.32 C173.02,94.51 172.13,94.39 170.25,94.92 C168.74,95.34 166.94,95.50 166.25,95.26 C165.57,95.03 163.54,95.72 161.75,96.80 C158.25,98.92 152.30,100.96 154.97,99.12 C157.86,97.14 155.09,96.87 149.59,98.60 C146.22,99.67 144.00,100.94 144.00,101.80 C144.00,102.82 144.65,103.04 146.25,102.55 C147.42,102.20 148.32,101.93 149.01,101.82 C145.49,102.99 138.16,106.48 138.08,107.25 C138.03,107.66 137.99,111.49 137.99,115.75 L 137.98 123.50 L 132.55 126.48 C135.98,124.54 137.79,122.97 137.50,122.17 ZM 138.52 99.66 C138.66,100.32 138.69,100.82 138.95,101.08 C139.57,101.73 141.55,101.08 149.83,98.34 C150.66,98.06 151.54,97.77 152.50,97.45 C156.90,96.00 161.85,93.96 163.50,92.92 L 166.50 91.02 L 158.71 91.66 L 150.93 92.30 L 151.21 81.92 L 151.50 71.54 L 154.71 69.52 C160.62,65.80 159.08,65.00 146.00,65.00 C139.40,65.00 134.00,65.30 134.00,65.67 C134.00,66.04 134.79,67.21 135.75,68.27 C137.20,69.88 137.55,72.51 137.77,83.85 C137.92,91.36 138.26,98.47 138.52,99.66 ZM 128.52 211.98 C126.78,214.78 115.27,211.34 100.06,203.48 C88.35,197.43 78.24,189.38 70.34,179.83 C64.03,172.19 54.54,155.88 55.22,153.84 C55.44,153.19 56.21,154.08 56.93,155.83 C57.65,157.57 58.64,159.00 59.12,159.00 C59.60,159.00 60.00,159.80 60.00,160.78 C60.00,161.76 60.79,163.26 61.75,164.13 C62.71,164.99 64.04,166.55 64.69,167.60 C65.66,169.15 65.89,169.21 65.94,167.90 C65.97,167.03 65.10,165.50 64.00,164.50 C62.90,163.50 62.00,162.15 62.00,161.49 C62.00,160.95 60.99,158.28 59.62,155.10 C69.34,174.84 85.89,191.76 105.25,201.11 C107.86,202.37 110.00,203.79 110.00,204.26 C110.00,204.73 110.37,204.89 110.82,204.61 C111.27,204.33 115.21,205.21 119.57,206.57 C123.08,207.65 126.72,208.51 130.43,209.14 C125.09,208.47 119.90,207.53 115.50,206.39 C113.87,205.97 113.78,206.07 115.00,206.92 C115.82,207.50 117.23,207.98 118.13,207.98 C119.02,207.99 121.50,208.76 123.63,209.69 C125.76,210.61 127.87,211.28 128.32,211.16 C128.78,211.05 128.86,211.41 128.52,211.98 ZM 151.00 125.55 L 151.00 167.31 L 154.96 171.07 C157.75,173.73 159.51,174.68 160.96,174.30 C162.54,173.89 163.00,174.24 163.00,175.88 C163.00,177.99 162.92,178.00 131.11,178.00 C129.67,178.00 128.30,178.00 126.98,178.00 C131.05,177.97 134.02,177.69 133.68,177.35 C133.33,176.99 134.00,175.87 135.17,174.85 C137.69,172.67 138.14,172.57 137.93,174.25 C137.46,177.83 137.96,178.09 144.75,177.80 C149.50,177.59 151.43,177.13 151.25,176.25 C151.11,175.56 151.44,175.00 151.97,175.00 C152.50,175.00 152.64,174.21 152.27,173.25 C151.63,171.60 151.74,171.60 154.30,173.28 C155.78,174.25 157.00,174.62 157.00,174.09 C157.00,173.56 156.10,172.85 155.01,172.50 C150.98,171.22 150.00,169.16 150.00,161.93 C150.00,157.98 149.57,155.00 149.00,155.00 C148.45,155.00 148.00,154.10 148.00,153.00 C148.00,151.90 148.39,151.00 148.86,151.00 C149.34,151.00 149.75,145.62 149.77,139.05 C149.80,132.47 150.12,126.61 150.49,126.02 C150.55,125.91 150.73,125.75 151.00,125.55 ZM 115.94 175.94 C117.77,177.53 119.43,177.95 125.02,177.99 C110.35,177.97 103.57,177.82 100.64,177.38 C100.62,177.24 100.56,177.09 100.46,176.93 C100.10,176.35 100.41,175.95 101.15,176.05 C103.61,176.39 104.67,176.02 107.00,174.00 L 107.12 173.89 C108.22,172.94 108.85,172.39 108.77,172.23 C108.65,172.02 107.31,172.48 104.18,173.56 C107.53,171.75 110.67,168.03 111.83,164.19 C112.45,162.09 112.88,157.32 112.99,153.33 C112.92,157.30 112.56,162.03 112.01,163.97 C111.34,166.32 111.35,167.75 112.07,168.46 C112.80,169.18 112.93,169.01 112.50,167.88 C112.01,166.59 112.39,166.35 114.37,166.73 C116.29,167.10 116.82,167.77 116.68,169.64 C116.57,170.98 115.83,172.49 115.03,172.98 C113.81,173.74 113.96,174.23 115.94,175.94 ZM 136.44 170.78 C136.70,170.42 136.91,169.98 137.09,169.39 C136.98,170.15 136.86,170.67 136.74,170.92 C136.06,172.25 135.05,173.47 134.50,173.63 C132.92,174.08 128.15,171.16 127.03,169.05 C126.95,168.91 126.88,168.68 126.81,168.35 C127.18,169.22 127.70,169.79 128.45,170.55 C131.50,173.60 134.41,173.68 136.44,170.78 ZM 113.17 132.67 L 113.50 139.15 L 110.00 141.73 C108.64,142.74 107.25,143.90 105.92,145.12 C107.21,143.93 108.57,142.79 109.91,141.78 C113.11,139.36 113.30,139.20 113.17,132.67 ZM 170.00 207.41 C177.82,205.42 185.19,202.50 192.02,198.79 C181.66,204.52 170.53,208.14 158.81,209.56 C162.57,209.06 166.31,208.35 170.00,207.41 ZM 138.00 151.22 C138.00,151.07 138.00,150.92 138.00,150.78 C138.00,141.00 137.66,133.00 137.25,133.01 C137.92,133.00 138.13,141.98 138.00,151.22 ZM 98.75 176.72 C98.72,176.68 98.69,176.64 98.68,176.60 C98.31,175.63 99.15,175.01 101.39,174.59 C101.44,174.58 101.49,174.57 101.53,174.56 C99.73,175.36 98.66,176.17 98.75,176.72 ZM 51.80 126.79 C52.20,131.37 52.75,135.61 53.39,138.58 C52.55,135.06 52.06,131.38 51.80,126.79 ZM 166.54 106.80 C164.03,108.86 161.12,110.79 157.91,112.48 C160.60,111.06 163.92,108.85 166.54,106.80 ZM 54.09 141.23 C54.52,142.62 54.98,144.01 55.48,145.39 C54.95,143.97 54.49,142.60 54.09,141.23 ZM 186.95 99.51 C185.95,100.97 184.81,102.41 183.50,103.84 C184.79,102.43 185.93,100.99 186.95,99.51 ZM 151.11 104.03 C151.15,104.65 151.16,105.42 151.14,106.37 C151.14,105.51 151.13,104.71 151.11,104.03 Z" fill="rgb(56,79,108)"/>
<path d="M 169.48 104.25 C171.97,101.77 174.01,99.23 174.01,98.62 C174.01,98.54 174.02,98.44 174.03,98.32 C174.61,97.30 175.08,96.28 175.43,95.26 C176.32,92.63 176.99,87.40 176.98,83.07 C176.97,79.11 176.58,75.92 175.66,73.05 C176.55,75.44 177.20,78.02 177.56,80.73 L 178.25 85.96 L 181.38 84.23 C183.09,83.28 184.77,82.13 185.10,81.68 C185.62,80.98 187.66,80.34 190.25,80.08 C191.70,79.93 190.94,72.46 189.05,68.31 C188.87,67.89 188.65,67.47 188.43,67.05 C188.76,67.64 189.06,68.24 189.33,68.82 C192.14,74.90 192.40,86.49 190.19,93.38 C189.39,95.47 188.31,97.51 186.95,99.51 C185.93,100.99 184.79,102.43 183.50,103.84 C177.98,109.88 169.65,115.63 158.22,121.39 L 151.00 125.03 L 151.00 125.55 C150.73,125.75 150.55,125.91 150.49,126.02 C150.12,126.61 149.80,132.47 149.77,139.05 C149.75,145.62 149.34,151.00 148.86,151.00 C148.39,151.00 148.00,151.90 148.00,153.00 C148.00,154.10 148.45,155.00 149.00,155.00 C149.57,155.00 150.00,157.98 150.00,161.93 C150.00,169.16 150.98,171.22 155.01,172.50 C156.10,172.85 157.00,173.56 157.00,174.09 C157.00,174.62 155.78,174.25 154.30,173.28 C151.74,171.60 151.63,171.60 152.27,173.25 C152.64,174.21 152.50,175.00 151.97,175.00 C151.44,175.00 151.11,175.56 151.25,176.25 C151.43,177.13 149.50,177.59 144.75,177.80 C137.96,178.09 137.46,177.83 137.93,174.25 C138.14,172.57 137.69,172.67 135.17,174.85 C134.00,175.87 133.33,176.99 133.68,177.35 C134.02,177.69 131.05,177.97 126.98,178.00 L 126.98 178.00 C126.32,178.00 125.66,178.00 125.02,177.99 C119.43,177.95 117.77,177.53 115.94,175.94 C113.96,174.23 113.81,173.74 115.03,172.98 C115.83,172.49 116.57,170.98 116.68,169.64 C116.82,167.77 116.29,167.10 114.37,166.73 C112.39,166.35 112.01,166.59 112.50,167.88 C112.93,169.01 112.80,169.18 112.07,168.46 C111.35,167.75 111.34,166.32 112.01,163.97 C112.56,162.03 112.92,157.30 112.99,153.33 C113.09,149.87 112.94,147.00 112.46,147.00 C111.52,147.00 103.60,151.19 100.75,153.20 C94.94,157.29 99.71,150.80 105.92,145.12 C107.25,143.90 108.64,142.74 110.00,141.73 L 113.50 139.15 L 113.17 132.67 C113.16,132.25 113.15,131.82 113.14,131.35 C113.04,126.41 112.83,121.96 112.57,118.34 C112.33,109.63 112.14,97.17 112.10,86.33 L 112.01 61.76 C112.73,65.19 113.00,69.82 113.00,76.07 C113.00,83.18 113.24,89.00 113.54,89.00 C113.84,89.00 115.38,88.04 116.96,86.87 C118.83,85.49 120.75,84.91 122.42,85.23 C124.89,85.70 125.00,85.53 125.01,81.11 C125.01,78.58 125.30,72.11 125.66,66.75 L 126.00 61.56 L 126.00 130.08 L 132.00 126.79 C132.18,126.69 132.37,126.58 132.55,126.48 L 137.98 123.50 L 137.99 115.75 C137.99,111.49 138.03,107.66 138.08,107.25 C138.16,106.48 145.49,102.99 149.01,101.82 C150.46,101.59 150.97,102.08 151.11,104.03 C151.13,104.71 151.14,105.51 151.14,106.37 C151.13,107.09 151.10,107.91 151.08,108.84 L 150.86 116.18 L 157.91 112.48 C161.12,110.79 164.03,108.86 166.54,106.80 C167.70,105.89 168.72,105.02 169.48,104.25 ZM 51.80 126.79 C52.06,131.38 52.55,135.06 53.39,138.58 C53.54,139.30 53.70,139.94 53.87,140.50 C53.94,140.74 54.01,140.99 54.09,141.23 L 54.09 141.23 C54.49,142.60 54.95,143.97 55.48,145.39 C56.67,148.69 58.06,151.93 59.62,155.10 C60.99,158.28 62.00,160.95 62.00,161.49 C62.00,162.15 62.90,163.50 64.00,164.50 C65.10,165.50 65.97,167.03 65.94,167.90 C65.89,169.21 65.66,169.15 64.69,167.60 C64.04,166.55 62.71,164.99 61.75,164.13 C60.79,163.26 60.00,161.76 60.00,160.78 C60.00,159.80 59.60,159.00 59.12,159.00 C58.64,159.00 57.65,157.57 56.93,155.83 C56.21,154.08 55.44,153.19 55.22,153.84 C54.54,155.87 63.90,171.97 70.21,179.67 C69.62,179.01 69.06,178.37 68.52,177.74 C53.69,160.37 46.65,142.32 45.42,118.50 C44.75,105.55 45.46,99.80 49.83,82.75 C51.88,74.74 63.98,55.16 72.46,46.13 C76.95,41.34 89.00,31.26 89.00,32.28 C89.00,32.50 86.28,34.99 82.95,37.80 C74.48,44.97 64.73,57.02 59.90,66.32 C56.79,72.29 56.08,74.48 56.96,75.35 C57.84,76.22 57.96,76.07 57.45,74.75 C57.03,73.65 57.26,73.00 58.06,73.00 C58.76,73.00 59.06,72.73 58.73,72.39 C58.39,72.06 58.55,71.27 59.07,70.64 C60.47,68.96 64.91,62.98 69.85,56.10 C71.14,54.30 72.96,52.12 75.02,49.86 C69.95,55.70 65.19,62.36 61.90,68.48 C57.52,76.63 52.62,90.58 53.59,92.15 C53.96,92.74 53.64,93.61 52.88,94.07 C52.16,94.52 51.79,96.40 51.62,101.73 C50.72,105.56 50.93,116.96 51.80,126.79 ZM 216.03 180.28 C216.86,179.43 217.69,178.56 218.50,177.67 C226.47,169.01 228.42,168.85 222.32,177.37 L 218.63 182.50 L 221.92 179.50 C226.70,175.13 236.24,160.36 239.43,152.39 C240.94,148.60 242.56,145.05 243.01,144.49 C244.51,142.68 246.62,132.09 247.46,122.88 C245.51,146.82 236.99,165.21 220.10,182.10 C203.39,198.80 185.50,209.01 166.11,212.91 C152.45,215.66 134.80,215.66 123.50,212.91 C122.48,212.66 121.37,212.35 120.19,211.97 C124.71,213.23 127.70,213.30 128.52,211.98 C128.86,211.41 128.78,211.05 128.32,211.16 C127.87,211.28 125.76,210.61 123.63,209.69 C121.50,208.76 119.02,207.99 118.13,207.98 C117.23,207.98 115.82,207.50 115.00,206.92 C113.78,206.07 113.87,205.97 115.50,206.39 C119.90,207.53 125.09,208.47 130.43,209.14 C139.59,210.69 149.25,210.83 158.81,209.56 C170.53,208.14 181.66,204.52 192.02,198.79 C201.05,193.88 209.13,187.60 216.03,180.28 ZM 138.00 151.22 C138.13,141.98 137.92,133.00 137.25,133.01 C136.84,133.01 134.14,134.37 131.25,136.03 L 126.00 139.04 L 126.00 153.57 C126.00,163.19 126.03,166.47 126.81,168.35 C126.88,168.68 126.95,168.91 127.03,169.05 C128.15,171.16 132.92,174.08 134.50,173.63 C135.05,173.47 136.06,172.25 136.74,170.92 C136.86,170.67 136.98,170.15 137.09,169.39 C137.81,167.08 138.00,162.48 138.00,151.22 ZM 137.77 74.99 C138.30,80.49 138.39,80.56 142.00,78.50 C143.38,77.71 145.64,77.05 147.03,77.04 C148.91,77.01 149.85,76.23 150.69,74.00 C150.86,73.55 151.14,73.05 151.47,72.56 L 151.21 81.92 L 150.93 92.30 L 158.71 91.66 L 162.74 91.33 L 161.50 91.48 C158.75,91.81 153.25,92.25 149.28,92.46 C141.27,92.89 138.76,93.40 138.16,95.27 C138.00,92.27 137.85,88.12 137.77,83.85 C137.63,76.99 137.46,73.31 137.01,71.13 C137.37,72.32 137.65,73.69 137.77,74.99 ZM 113.00 104.47 C113.00,113.46 113.58,114.39 117.38,111.51 C119.02,110.27 119.65,110.28 122.13,111.57 L 125.00 113.05 L 124.98 103.78 C124.97,97.42 124.66,94.97 124.00,96.00 C123.47,96.82 123.02,97.14 123.02,96.69 C123.01,96.25 122.03,96.56 120.85,97.39 C118.95,98.72 118.37,98.73 115.85,97.42 L 113.00 95.95 ZM 244.16 87.94 C241.90,79.94 238.67,72.55 234.65,66.50 C229.69,59.03 229.12,58.64 231.50,64.35 C234.33,71.12 233.00,70.48 227.64,62.49 C218.91,49.49 208.31,39.09 196.27,31.61 C201.45,34.68 206.26,38.12 210.25,41.66 C214.06,45.05 217.39,46.38 215.07,43.59 C214.36,42.72 214.27,41.95 214.86,41.58 C215.77,41.03 222.15,47.86 230.20,58.00 C236.21,65.58 241.08,76.32 244.16,87.94 ZM 190.49 200.99 C191.34,202.36 199.57,198.02 204.50,193.60 L 208.50 190.02 L 201.25 194.14 C197.26,196.41 194.00,198.65 194.00,199.13 C194.00,199.61 193.07,200.00 191.94,200.00 C190.81,200.00 190.16,200.45 190.49,200.99 ZM 101.53 174.56 C102.41,174.38 103.30,174.03 104.18,173.56 C107.31,172.48 108.65,172.02 108.77,172.23 C108.85,172.39 108.22,172.94 107.12,173.89 L 107.00 174.00 C104.67,176.02 103.61,176.39 101.15,176.05 C100.41,175.95 100.10,176.35 100.46,176.93 C100.56,177.09 100.62,177.24 100.64,177.38 C99.51,177.21 98.95,176.99 98.75,176.72 C98.66,176.17 99.73,175.36 101.53,174.56 ZM 110.56 57.44 L 109.48 56.16 C107.86,54.24 105.82,53.05 103.30,52.56 C106.75,53.21 109.06,54.58 110.56,57.44 ZM 89.84 197.42 C87.71,196.06 85.80,194.73 84.24,193.48 C83.31,192.75 82.22,191.79 81.02,190.69 C83.80,193.08 86.75,195.33 89.84,197.42 ZM 162.96 58.83 C158.75,57.40 152.64,57.00 141.97,57.00 C153.65,57.00 158.83,57.40 162.29,58.58 C162.51,58.66 162.74,58.74 162.96,58.83 ZM 151.32 97.84 C157.68,95.67 161.72,94.01 163.50,92.85 L 166.26 91.04 L 166.50 91.02 L 163.50 92.92 C161.85,93.96 156.90,96.00 152.50,97.45 C152.09,97.59 151.70,97.72 151.32,97.84 ZM 153.48 70.29 C153.95,69.88 154.44,69.52 154.91,69.25 C155.73,68.78 156.41,68.36 156.92,67.98 C156.38,68.43 155.64,68.94 154.71,69.52 ZM 138.72 100.64 C138.98,101.08 139.34,101.29 139.92,101.30 C139.41,101.35 139.13,101.27 138.95,101.08 C138.84,100.97 138.77,100.82 138.72,100.64 ZM 157.06 65.69 C155.42,65.18 151.84,65.00 146.00,65.00 C151.93,65.00 155.49,65.17 157.06,65.69 ZM 181.71 58.39 C179.12,55.82 176.24,53.59 173.54,52.16 C176.27,53.60 179.13,55.82 181.71,58.39 Z" fill="rgb(166,157,135)"/>
<path d="M 0.00 110.50 L 0.00 0.00 L 144.00 0.00 L 288.00 0.00 L 288.00 110.50 L 288.00 221.00 L 144.00 221.00 L 0.00 221.00 L 0.00 110.50 ZM 166.11 212.91 C185.50,209.01 203.39,198.80 220.10,182.10 C237.68,164.52 246.19,145.32 247.67,119.93 C248.93,98.24 241.64,72.42 230.20,58.00 C222.15,47.86 215.77,41.03 214.86,41.58 C214.27,41.95 214.36,42.72 215.07,43.59 C217.39,46.38 214.06,45.05 210.25,41.66 C200.12,32.66 184.69,24.40 171.50,20.93 C161.21,18.22 142.70,17.29 132.25,18.97 C121.35,20.71 109.77,24.53 101.00,29.27 C96.88,31.50 93.28,33.59 93.00,33.93 C92.72,34.27 91.28,35.32 89.79,36.27 C84.88,39.39 74.27,49.95 69.85,56.10 C64.91,62.98 60.47,68.96 59.07,70.64 C58.55,71.27 58.39,72.06 58.73,72.39 C59.06,72.73 58.76,73.00 58.06,73.00 C57.26,73.00 57.03,73.65 57.45,74.75 C57.96,76.07 57.84,76.22 56.96,75.35 C56.08,74.48 56.79,72.29 59.90,66.32 C64.73,57.02 74.48,44.97 82.95,37.80 C86.28,34.99 89.00,32.50 89.00,32.28 C89.00,31.26 76.95,41.34 72.46,46.13 C63.98,55.16 51.88,74.74 49.83,82.75 C45.46,99.80 44.75,105.55 45.42,118.50 C46.65,142.32 53.69,160.37 68.52,177.74 C73.25,183.28 80.32,190.36 84.24,193.48 C93.10,200.54 112.87,210.33 123.50,212.91 C134.80,215.66 152.45,215.66 166.11,212.91 ZM 190.49 200.99 C190.16,200.45 190.81,200.00 191.94,200.00 C193.07,200.00 194.00,199.61 194.00,199.13 C194.00,198.65 197.26,196.41 201.25,194.14 L 208.50 190.02 L 204.50 193.60 C199.57,198.02 191.34,202.36 190.49,200.99 ZM 113.00 104.47 L 113.00 95.95 L 115.85 97.42 C118.37,98.73 118.95,98.72 120.85,97.39 C122.03,96.56 123.01,96.25 123.02,96.69 C123.02,97.14 123.47,96.82 124.00,96.00 C124.66,94.97 124.97,97.42 124.98,103.78 L 125.00 113.05 L 122.13 111.57 C119.65,110.28 119.02,110.27 117.38,111.51 C113.58,114.39 113.00,113.46 113.00,104.47 ZM 138.56 100.31 C138.25,99.50 138.00,97.78 138.00,96.49 C138.00,93.60 139.75,92.97 149.28,92.46 C153.25,92.25 158.75,91.81 161.50,91.48 L 166.50 90.89 L 163.50 92.85 C160.95,94.52 153.78,97.19 141.81,100.94 C139.80,101.57 138.99,101.41 138.56,100.31 ZM 113.00 76.07 C113.00,58.71 110.91,53.84 102.89,52.48 C100.45,52.07 99.00,51.28 99.00,50.36 C99.00,49.11 103.81,48.94 133.75,49.20 L 168.50 49.50 L 173.54 52.16 C179.53,55.32 186.41,62.48 189.05,68.31 C190.94,72.46 191.70,79.93 190.25,80.08 C187.66,80.34 185.62,80.98 185.10,81.68 C184.77,82.13 183.09,83.28 181.38,84.23 L 178.25 85.96 L 177.56 80.73 C176.13,69.94 170.15,61.26 162.29,58.58 C158.83,57.40 153.65,57.00 141.97,57.00 L 126.30 57.00 L 125.66 66.75 C125.30,72.11 125.01,78.58 125.01,81.11 C125.00,85.53 124.89,85.70 122.42,85.23 C120.75,84.91 118.83,85.49 116.96,86.87 C115.38,88.04 113.84,89.00 113.54,89.00 C113.24,89.00 113.00,83.18 113.00,76.07 ZM 137.77 74.99 C137.51,72.23 136.55,69.16 135.65,68.16 C134.74,67.16 134.00,66.04 134.00,65.67 C134.00,65.30 139.40,65.00 146.00,65.00 C158.93,65.00 160.81,65.90 154.91,69.25 C153.21,70.22 151.31,72.36 150.69,74.00 C149.85,76.23 148.91,77.01 147.03,77.04 C145.64,77.05 143.38,77.71 142.00,78.50 C138.39,80.56 138.30,80.49 137.77,74.99 Z" fill="rgb(252,252,251)"/>
</g>
</svg>